{
	"asset":{
		"generator":"Khronos glTF Blender I/O v4.1.62",
		"version":"2.0"
	},
	"extensionsUsed":[
		"KHR_materials_specular"
	],
	"scene":0,
	"scenes":[
		{
			"name":"Scene",
			"nodes":[
				0
			]
		}
	],
	"nodes":[
		{
			"mesh":0,
			"name":"Naranjos.007",
			"rotation":[
				0.5,
				-0.5,
				0.5000001192092896,
				0.5000000596046448
			],
			"scale":[
				0.10174538940191269,
				0.10174538940191269,
				0.10174538940191269
			]
		}
	],
	"materials":[
		{
			"doubleSided":true,
			"emissiveFactor":[
				1,
				1,
				1
			],
			"emissiveTexture":{
				"index":0
			},
			"extensions":{
				"KHR_materials_specular":{
					"specularFactor":0
				}
			},
			"name":"Material.003",
			"pbrMetallicRoughness":{
				"baseColorTexture":{
					"index":1
				},
				"metallicFactor":0
			}
		}
	],
	"meshes":[
		{
			"name":"ttmRoLdJipiIOmf.031",
			"primitives":[
				{
					"attributes":{
						"POSITION":0,
						"NORMAL":1,
						"TEXCOORD_0":2
					},
					"indices":3,
					"material":0
				}
			]
		}
	],
	"textures":[
		{
			"sampler":0,
			"source":0
		},
		{
			"sampler":0,
			"source":0
		}
	],
	"images":[
		{
			"mimeType":"image/jpeg",
			"name":"Textura Modulo",
			"uri":"Textura%20Modulo.jpg"
		}
	],
	"accessors":[
		{
			"bufferView":0,
			"componentType":5126,
			"count":27782,
			"max":[
				3.9743595123291016,
				4.0692667961120605,
				0.6002454161643982
			],
			"min":[
				-3.9743595123291016,
				-4.069261074066162,
				-0.29845669865608215
			],
			"type":"VEC3"
		},
		{
			"bufferView":1,
			"componentType":5126,
			"count":27782,
			"type":"VEC3"
		},
		{
			"bufferView":2,
			"componentType":5126,
			"count":27782,
			"type":"VEC2"
		},
		{
			"bufferView":3,
			"componentType":5123,
			"count":75180,
			"type":"SCALAR"
		}
	],
	"bufferViews":[
		{
			"buffer":0,
			"byteLength":333384,
			"byteOffset":0,
			"target":34962
		},
		{
			"buffer":0,
			"byteLength":333384,
			"byteOffset":333384,
			"target":34962
		},
		{
			"buffer":0,
			"byteLength":222256,
			"byteOffset":666768,
			"target":34962
		},
		{
			"buffer":0,
			"byteLength":150360,
			"byteOffset":889024,
			"target":34963
		}
	],
	"samplers":[
		{
			"magFilter":9729,
			"minFilter":9987
		}
	],
	"buffers":[
		{
			"byteLength":1039384,
			"uri":"modulo%20led%20lowpoly.bin"
		}
	]
}
