{
	"asset":{
		"generator":"Khronos glTF Blender I/O v4.0.44",
		"version":"2.0"
	},
	"extensionsUsed":[
		"KHR_materials_emissive_strength"
	],
	"scene":0,
	"scenes":[
		{
			"name":"Scene",
			"nodes":[
				0,
				1,
				2,
				3
			]
		}
	],
	"nodes":[
		{
			"mesh":0,
			"name":"xXDHkMplTIDAXLN",
			"scale":[
				0.009999999776482582,
				0.009999999776482582,
				0.009999999776482582
			]
		},
		{
			"mesh":1,
			"name":"Plastico",
			"scale":[
				0.009999999776482582,
				0.009999999776482582,
				0.009999999776482582
			]
		},
		{
			"mesh":2,
			"name":"Naranjos",
			"scale":[
				0.009999999776482582,
				0.009999999776482582,
				0.009999999776482582
			]
		},
		{
			"mesh":3,
			"name":"Metales",
			"scale":[
				0.009999999776482582,
				0.009999999776482582,
				0.009999999776482582
			]
		}
	],
	"materials":[
		{
			"emissiveFactor":[
				1,
				1,
				1
			],
			"extensions":{
				"KHR_materials_emissive_strength":{
					"emissiveStrength":2
				}
			},
			"name":"pIJKfZsazmcpEiU",
			"pbrMetallicRoughness":{
				"baseColorFactor":[
					0,
					0,
					0,
					1
				],
				"metallicFactor":0.20000000298023224,
				"roughnessFactor":0.0010000000474974513
			}
		},
		{
			"name":"eShKpuMNVJTRrgg.002",
			"pbrMetallicRoughness":{}
		},
		{
			"name":"hUlRcbieVuIiOXG.002",
			"pbrMetallicRoughness":{
				"metallicFactor":0
			}
		},
		{
			"name":"dxCVrUCvYhjVxqy.002",
			"pbrMetallicRoughness":{}
		}
	],
	"meshes":[
		{
			"name":"xXDHkMplTIDAXLN.001",
			"primitives":[
				{
					"attributes":{
						"POSITION":0,
						"NORMAL":1,
						"TEXCOORD_0":2
					},
					"indices":3,
					"material":0
				}
			]
		},
		{
			"name":"GuYJryuYunhpphO.002",
			"primitives":[
				{
					"attributes":{
						"POSITION":4,
						"NORMAL":5,
						"TEXCOORD_0":6
					},
					"indices":7,
					"material":1
				}
			]
		},
		{
			"name":"ttmRoLdJipiIOmf.002",
			"primitives":[
				{
					"attributes":{
						"POSITION":8,
						"NORMAL":9,
						"TEXCOORD_0":10
					},
					"indices":11,
					"material":2
				}
			]
		},
		{
			"name":"MrMmlCAsAxJpYqQ_0.002",
			"primitives":[
				{
					"attributes":{
						"POSITION":12,
						"NORMAL":13,
						"TEXCOORD_0":14
					},
					"indices":15,
					"material":3
				}
			]
		}
	],
	"accessors":[
		{
			"bufferView":0,
			"componentType":5126,
			"count":84,
			"max":[
				3.971605062484741,
				8.108806610107422,
				-0.29338783025741577
			],
			"min":[
				-3.971605062484741,
				-8.154266357421875,
				-0.2984575629234314
			],
			"type":"VEC3"
		},
		{
			"bufferView":1,
			"componentType":5126,
			"count":84,
			"type":"VEC3"
		},
		{
			"bufferView":2,
			"componentType":5126,
			"count":84,
			"type":"VEC2"
		},
		{
			"bufferView":3,
			"componentType":5123,
			"count":192,
			"type":"SCALAR"
		},
		{
			"bufferView":4,
			"componentType":5126,
			"count":34494,
			"max":[
				3.971605062484741,
				8.108806610107422,
				0.5192751288414001
			],
			"min":[
				-3.971605062484741,
				-8.158636093139648,
				-0.28671032190322876
			],
			"type":"VEC3"
		},
		{
			"bufferView":5,
			"componentType":5126,
			"count":34494,
			"type":"VEC3"
		},
		{
			"bufferView":6,
			"componentType":5126,
			"count":34494,
			"type":"VEC2"
		},
		{
			"bufferView":7,
			"componentType":5123,
			"count":97296,
			"type":"SCALAR"
		},
		{
			"bufferView":8,
			"componentType":5126,
			"count":2704,
			"max":[
				3.394221067428589,
				7.950758934020996,
				0.60024493932724
			],
			"min":[
				-3.394221067428589,
				-8.000588417053223,
				0.11943109333515167
			],
			"type":"VEC3"
		},
		{
			"bufferView":9,
			"componentType":5126,
			"count":2704,
			"type":"VEC3"
		},
		{
			"bufferView":10,
			"componentType":5126,
			"count":2704,
			"type":"VEC2"
		},
		{
			"bufferView":11,
			"componentType":5123,
			"count":11808,
			"type":"SCALAR"
		},
		{
			"bufferView":12,
			"componentType":5126,
			"count":21638,
			"max":[
				3.9743595123291016,
				8.11230182647705,
				0.3049163222312927
			],
			"min":[
				-3.9743595123291016,
				-8.162131309509277,
				-0.04270784929394722
			],
			"type":"VEC3"
		},
		{
			"bufferView":13,
			"componentType":5126,
			"count":21638,
			"type":"VEC3"
		},
		{
			"bufferView":14,
			"componentType":5126,
			"count":21638,
			"type":"VEC2"
		},
		{
			"bufferView":15,
			"componentType":5123,
			"count":41088,
			"type":"SCALAR"
		}
	],
	"bufferViews":[
		{
			"buffer":0,
			"byteLength":1008,
			"byteOffset":0,
			"target":34962
		},
		{
			"buffer":0,
			"byteLength":1008,
			"byteOffset":1008,
			"target":34962
		},
		{
			"buffer":0,
			"byteLength":672,
			"byteOffset":2016,
			"target":34962
		},
		{
			"buffer":0,
			"byteLength":384,
			"byteOffset":2688,
			"target":34963
		},
		{
			"buffer":0,
			"byteLength":413928,
			"byteOffset":3072,
			"target":34962
		},
		{
			"buffer":0,
			"byteLength":413928,
			"byteOffset":417000,
			"target":34962
		},
		{
			"buffer":0,
			"byteLength":275952,
			"byteOffset":830928,
			"target":34962
		},
		{
			"buffer":0,
			"byteLength":194592,
			"byteOffset":1106880,
			"target":34963
		},
		{
			"buffer":0,
			"byteLength":32448,
			"byteOffset":1301472,
			"target":34962
		},
		{
			"buffer":0,
			"byteLength":32448,
			"byteOffset":1333920,
			"target":34962
		},
		{
			"buffer":0,
			"byteLength":21632,
			"byteOffset":1366368,
			"target":34962
		},
		{
			"buffer":0,
			"byteLength":23616,
			"byteOffset":1388000,
			"target":34963
		},
		{
			"buffer":0,
			"byteLength":259656,
			"byteOffset":1411616,
			"target":34962
		},
		{
			"buffer":0,
			"byteLength":259656,
			"byteOffset":1671272,
			"target":34962
		},
		{
			"buffer":0,
			"byteLength":173104,
			"byteOffset":1930928,
			"target":34962
		},
		{
			"buffer":0,
			"byteLength":82176,
			"byteOffset":2104032,
			"target":34963
		}
	],
	"buffers":[
		{
			"byteLength":2186208,
			"uri":"scene.bin"
		}
	]
}
